# xmcd
#
# Track frame offsets:
# 150
# 13722
# 33533
# 49510
# 64804
# 76967
# 97382
# 116385
# 130610
# 142702
# 156954
# 174364
# 185161
# 204542
# 216985
# 230913
# 246353
# 263034
# 279499
# 300359
#
# Disc length: 4209 seconds
#
#
# Revision: 0
# Processed by: cddbd v1.5.1PL2 Copyright (c) Steve Scherf et al.
# Submitted via: FreeRIP 2.944 
#
DISCID=1d106f14
DTITLE=AMADO BATISTA - AS 20 MAIS
DYEAR=1900
DGENRE=SERTANJO
TTITLE0=EU QUERO É NAMORAR
TTITLE1=DIAMANTE
TTITLE2=É SÓ SAUDADE
TTITLE3=MUITOS COMPROMISSOS
TTITLE4=MANDEI UMA CARTA PRA ELA
TTITLE5=O MEU GRANDE AMOR
TTITLE6=SECRETÁRIA
TTITLE7=AMAR, AMAR
TTITLE8=O PROBETÃO
TTITLE9=CHACE
TTITLE10=DESISTO
TTITLE11=EX-AMOR
TTITLE12=SERESTEIRO DA NOITE
TTITLE13=SERENATA
TTITLE14=AMOR PERFEITO
TTITLE15=EU QUERO TE AMAR
TTITLE16=PRINCESA
TTITLE17=AHI SE EU PUDESSE
TTITLE18=MEU TALISMÃ
TTITLE19=EU TE AMO
EXTD=
EXTT0=
EXTT1=
EXTT2=
EXTT3=
EXTT4=
EXTT5=
EXTT6=
EXTT7=
EXTT8=
EXTT9=
EXTT10=
EXTT11=
EXTT12=
EXTT13=
EXTT14=
EXTT15=
EXTT16=
EXTT17=
EXTT18=
EXTT19=
PLAYORDER=
